<svg width="48" height="48" viewBox="0 0 48 48" fill="none" xmlns="http://www.w3.org/2000/svg">
<g clip-path="url(#clip0_1089_31109)">
<path d="M1.54088 0C0.581782 0 -0.137539 0.977776 0.0223012 1.95555L6.49629 46.0444C6.65613 47.2001 7.53533 48 8.57435 48H39.9052C40.6246 48 41.264 47.3779 41.4239 46.5778L47.9777 2.04446C48.1377 0.977776 47.4183 0.0889048 46.4593 0.0889048L1.54088 0ZM29.0354 31.8223H19.0446L16.407 16.089H31.513L29.0354 31.8223Z" fill="#2684FF"/>
<path d="M45.8196 16.0889H31.433L29.0352 31.8222H19.0444L7.29543 47.3778C7.29543 47.3778 7.85489 47.9111 8.65415 47.9111H39.985C40.7044 47.9111 41.3438 47.2888 41.5037 46.4887L45.8196 16.0889Z" fill="url(#paint0_linear_1089_31109)"/>
</g>
<defs>
<linearGradient id="paint0_linear_1089_31109" x1="49.1851" y1="20.5223" x2="23.4802" y2="38.5641" gradientUnits="userSpaceOnUse">
<stop offset="0.176" stop-color="#0052CC"/>
<stop offset="1" stop-color="#2684FF"/>
</linearGradient>
<clipPath id="clip0_1089_31109">
<rect width="48" height="48" fill="white"/>
</clipPath>
</defs>
</svg>
