<svg width="48" height="48" viewBox="0 0 48 48" fill="none" xmlns="http://www.w3.org/2000/svg">
<g clip-path="url(#clip0_1090_30958)">
<path d="M42.3552 12.0321L30.8266 0.503572C30.5052 0.182143 30.0713 0 29.6159 0H6.85877C5.91056 0 5.14449 0.766071 5.14449 1.71429V46.2857C5.14449 47.2339 5.91056 48 6.85877 48H41.1445C42.0927 48 42.8588 47.2339 42.8588 46.2857V13.2482C42.8588 12.7929 42.6766 12.3536 42.3552 12.0321ZM38.9052 14.0357H28.8231V3.95357L38.9052 14.0357ZM39.0016 44.1429H9.00163V3.85714H25.1802V15.4286C25.1802 16.0253 25.4173 16.5976 25.8392 17.0196C26.2612 17.4415 26.8335 17.6786 27.4302 17.6786H39.0016V44.1429Z" fill="#979797"/>
<path d="M33.8029 26.2696C33.7488 26.2271 33.2425 25.85 32.1746 25.85C31.8925 25.8513 31.6112 25.875 31.3333 25.9213C31.1267 24.5238 29.9921 23.8671 29.9396 23.8367L29.6529 23.6733L29.4642 23.9417C29.2279 24.3025 29.0192 24.675 28.9179 25.0929C28.7267 25.8908 28.8429 26.64 29.2538 27.2804C28.7571 27.5533 27.9108 27.5775 27.75 27.5833H14.6592C14.315 27.5838 14.0358 27.8583 14.0338 28.1975C14.0183 29.3363 14.1808 30.5113 14.5779 31.5804C15.0317 32.7546 15.7071 33.6196 16.5854 34.1488C17.5696 34.7433 19.1688 35.0833 20.9817 35.0833C21.8004 35.0858 22.6179 35.0129 23.4229 34.865C24.5421 34.6621 25.6192 34.2763 26.6092 33.7233C27.425 33.2571 28.1592 32.6642 28.7837 31.9671C29.8275 30.8013 30.4492 29.5033 30.9117 28.3496C30.9738 28.3496 31.0358 28.3496 31.0958 28.3496C32.2387 28.3496 32.9413 27.8983 33.3288 27.5204C33.5863 27.2792 33.7875 26.9854 33.9179 26.66L34 26.4233L33.8029 26.2696Z" fill="#2395EC"/>
<path d="M17.3333 27.1667H16.0833C15.8533 27.1667 15.6667 26.98 15.6667 26.75V25.5C15.6667 25.27 15.8533 25.0834 16.0833 25.0834H17.3333C17.5633 25.0834 17.75 25.27 17.75 25.5V26.75C17.75 26.98 17.5633 27.1667 17.3333 27.1667Z" fill="#2395EC"/>
<path d="M19.8333 27.1667H18.5833C18.3533 27.1667 18.1667 26.98 18.1667 26.75V25.5C18.1667 25.27 18.3533 25.0834 18.5833 25.0834H19.8333C20.0633 25.0834 20.25 25.27 20.25 25.5V26.75C20.25 26.98 20.0633 27.1667 19.8333 27.1667Z" fill="#2395EC"/>
<path d="M22.3333 27.1667H21.0833C20.8533 27.1667 20.6667 26.98 20.6667 26.75V25.5C20.6667 25.27 20.8533 25.0834 21.0833 25.0834H22.3333C22.5633 25.0834 22.75 25.27 22.75 25.5V26.75C22.75 26.98 22.5633 27.1667 22.3333 27.1667Z" fill="#2395EC"/>
<path d="M24.8333 27.1667H23.5833C23.3533 27.1667 23.1667 26.98 23.1667 26.75V25.5C23.1667 25.27 23.3533 25.0834 23.5833 25.0834H24.8333C25.0633 25.0834 25.25 25.27 25.25 25.5V26.75C25.25 26.98 25.0633 27.1667 24.8333 27.1667Z" fill="#2395EC"/>
<path d="M19.8333 24.6667H18.5833C18.3533 24.6667 18.1667 24.48 18.1667 24.25V23C18.1667 22.77 18.3533 22.5834 18.5833 22.5834H19.8333C20.0633 22.5834 20.25 22.77 20.25 23V24.25C20.25 24.48 20.0633 24.6667 19.8333 24.6667Z" fill="#2395EC"/>
<path d="M22.3333 24.6667H21.0833C20.8533 24.6667 20.6667 24.48 20.6667 24.25V23C20.6667 22.77 20.8533 22.5834 21.0833 22.5834H22.3333C22.5633 22.5834 22.75 22.77 22.75 23V24.25C22.75 24.48 22.5633 24.6667 22.3333 24.6667Z" fill="#2395EC"/>
<path d="M24.8333 24.6667H23.5833C23.3533 24.6667 23.1667 24.48 23.1667 24.25V23C23.1667 22.77 23.3533 22.5834 23.5833 22.5834H24.8333C25.0633 22.5834 25.25 22.77 25.25 23V24.25C25.25 24.48 25.0633 24.6667 24.8333 24.6667Z" fill="#2395EC"/>
<path d="M24.8333 22.1667H23.5833C23.3533 22.1667 23.1667 21.98 23.1667 21.75V20.5C23.1667 20.27 23.3533 20.0834 23.5833 20.0834H24.8333C25.0633 20.0834 25.25 20.27 25.25 20.5V21.75C25.25 21.98 25.0633 22.1667 24.8333 22.1667Z" fill="#2395EC"/>
<path d="M27.3333 27.1667H26.0833C25.8533 27.1667 25.6667 26.98 25.6667 26.75V25.5C25.6667 25.27 25.8533 25.0834 26.0833 25.0834H27.3333C27.5633 25.0834 27.75 25.27 27.75 25.5V26.75C27.75 26.98 27.5633 27.1667 27.3333 27.1667Z" fill="#2395EC"/>
</g>
<defs>
<clipPath id="clip0_1090_30958">
<rect width="48" height="48" fill="white"/>
</clipPath>
</defs>
</svg>
