<?xml version="1.0" encoding="UTF-8"?>
<svg width="48px" height="48px" viewBox="0 0 54 54" version="1.1" xmlns="http://www.w3.org/2000/svg" xmlns:xlink="http://www.w3.org/1999/xlink">
    <title>Icons/ActionsServices/gitpush</title>
    <g stroke="none" stroke-width="1" fill="none" fill-rule="evenodd" transform="translate(3 3)">
        <path d="M26.0491804,0.902376141 L26.1860889,1.04654274 L46.9534637,21.8139564 C48.2990104,23.0222845 48.3470656,24.8902575 47.0976294,26.0591164 L46.9534637,26.1860435 L26.1860889,46.9534572 C25.0702907,48.2990122 23.2071328,48.3470678 21.9510121,47.0976238 L21.8140101,46.9534572 L1.04663536,26.1860435 C-0.299038676,24.9772067 -0.347098463,23.110197 0.902456003,21.9409343 L1.04663536,21.8139564 L15.0230096,7.83714829 L20.2270913,13.0417935 C20.0748335,13.4939298 19.9923105,13.9781288 19.9923105,14.481602 C19.9923105,16.4103955 21.2034486,18.056312 22.9067058,18.7003312 L22.9067058,30.3016054 C21.2034486,30.9456246 19.9923105,32.5915411 19.9923105,34.5203346 C19.9923105,37.010429 22.0109271,39.0290494 24.5010169,39.0290494 C26.9911066,39.0290494 29.0097232,37.010429 29.0097232,34.5203346 C29.0097232,32.6261798 27.8416956,31.004833 26.1866126,30.3372679 L26.1865665,19.0007262 L30.2463221,23.061506 C30.0941389,23.5135433 30.011658,23.9976235 30.011658,24.5009683 C30.011658,26.9910627 32.0302746,29.0096831 34.5203643,29.0096831 C37.0104541,29.0096831 39.0290707,26.9910627 39.0290707,24.5009683 C39.0290707,22.0108739 37.0104541,19.9922535 34.5203643,19.9922535 C34.0168462,19.9922535 33.5326059,20.0747917 33.0804351,20.2270762 L28.7745637,15.9225351 C28.9270633,15.4700771 29.0097232,14.9854927 29.0097232,14.481602 C29.0097232,11.9915076 26.9911066,9.97288723 24.5010169,9.97288723 C23.9974988,9.97288723 23.5132584,10.0554254 23.0610876,10.20771 L17.856481,5.00367151 L21.8140101,1.04654274 C22.93019,-0.299012213 24.7938522,-0.347067747 26.0491804,0.902376141 Z" id="Path" fill="#DE4C36"></path>
        <rect id="Rectangle" x="0" y="0" width="48" height="48"></rect>
    </g>
</svg>
