<svg width="48" height="48" viewBox="0 0 48 48" fill="none" xmlns="http://www.w3.org/2000/svg">
<path fill-rule="evenodd" clip-rule="evenodd" d="M25.8215 3.46874L25.9432 3.59689L44.4031 22.0568C45.5991 23.1309 45.6418 24.7913 44.5312 25.8303L44.4031 25.9431L25.9432 44.403C24.9514 45.5991 23.2952 45.6418 22.1787 44.5312L22.0569 44.403L3.59701 25.9431C2.40086 24.8686 2.35814 23.209 3.46885 22.1697L3.59701 22.0568L16.0205 9.63298L20.6463 14.2593C20.511 14.6612 20.4376 15.0916 20.4376 15.5392C20.4376 17.2536 21.5142 18.7167 23.0282 19.2891V29.6014C21.5142 30.1738 20.4376 31.6369 20.4376 33.3514C20.4376 35.5648 22.2319 37.3591 24.4453 37.3591C26.6588 37.3591 28.4531 35.5648 28.4531 33.3514C28.4531 31.6677 27.4148 30.2265 25.9437 29.6331L25.9436 19.5562L29.5523 23.1657C29.417 23.5676 29.3437 23.9978 29.3437 24.4453C29.3437 26.6587 31.138 28.453 33.3514 28.453C35.5648 28.453 37.3592 26.6587 37.3592 24.4453C37.3592 22.2318 35.5648 20.4375 33.3514 20.4375C32.9039 20.4375 32.4734 20.5109 32.0715 20.6462L28.2441 16.82C28.3796 16.4178 28.4531 15.9871 28.4531 15.5392C28.4531 13.3257 26.6588 11.5314 24.4453 11.5314C23.9978 11.5314 23.5673 11.6048 23.1654 11.7401L18.5391 7.11433L22.0569 3.59689C23.0491 2.40084 24.7056 2.35812 25.8215 3.46874Z" fill="#DE4C36"/>
</svg>
