<svg width="48" height="48" viewBox="0 0 48 48" fill="none" xmlns="http://www.w3.org/2000/svg">
<g clip-path="url(#clip0_1089_31080)">
<path d="M47.201 18.9973L47.1335 18.8182L40.6004 1.11648C40.4674 0.769531 40.2321 0.475217 39.9281 0.275761C39.6238 0.0796937 39.269 -0.0147386 38.9114 0.00521426C38.5539 0.0251672 38.2108 0.158544 37.9286 0.387338C37.6495 0.622699 37.4471 0.941623 37.3488 1.30071L32.9375 15.3126H15.075L10.6637 1.30071C10.568 0.939667 10.3651 0.619145 10.0839 0.384742C9.80165 0.155949 9.45861 0.0225718 9.10105 0.0026189C8.7435 -0.017334 8.38865 0.0770984 8.08443 0.273166C7.78109 0.473427 7.54593 0.767484 7.41212 1.11388L0.866449 18.8078L0.801467 18.9869C-0.139014 21.5381 -0.255101 24.3376 0.470709 26.9633C1.19652 29.589 2.72488 31.8986 4.82534 33.5437L4.84784 33.5619L4.90782 33.606L14.86 41.3437L19.7837 45.2126L22.7828 47.5634C23.1337 47.84 23.562 47.9897 24.0025 47.9897C24.443 47.9897 24.8713 47.84 25.2222 47.5634L28.2213 45.2126L33.1449 41.3437L43.1572 33.5593L43.1821 33.5385C45.2779 31.8931 46.8027 29.5859 47.5274 26.9637C48.2521 24.3416 48.1376 21.5461 47.201 18.9973Z" fill="#E24329"/>
<path d="M47.201 18.9973L47.1335 18.8182C43.9502 19.4966 40.9504 20.8966 38.3485 22.918L24 34.1821C28.8861 38.0198 33.14 41.3541 33.14 41.3541L43.1522 33.5697L43.1772 33.5489C45.2759 31.9035 46.8031 29.5949 47.5288 26.9705C48.2545 24.3461 48.1395 21.5479 47.201 18.9973Z" fill="#FC6D26"/>
<path d="M14.86 41.354L19.7837 45.2229L22.7828 47.5738C23.1337 47.8503 23.562 48 24.0025 48C24.443 48 24.8713 47.8503 25.2222 47.5738L28.2213 45.2229L33.1449 41.354C33.1449 41.354 28.8861 38.0093 24 34.182C19.1139 38.0093 14.86 41.354 14.86 41.354Z" fill="#FCA326"/>
<path d="M9.649 22.918C7.04921 20.8924 4.05007 19.4888 0.866449 18.8079L0.801467 18.9869C-0.139014 21.5381 -0.255101 24.3376 0.470709 26.9633C1.19652 29.589 2.72488 31.8986 4.82534 33.5437L4.84784 33.5619L4.90782 33.606L14.86 41.3437C14.86 41.3437 19.1089 38.0094 24 34.1717L9.649 22.918Z" fill="#FC6D26"/>
</g>
<defs>
<clipPath id="clip0_1089_31080">
<rect width="48" height="48" fill="white"/>
</clipPath>
</defs>
</svg>
