<?xml version="1.0" encoding="UTF-8" standalone="no"?>
<!DOCTYPE svg PUBLIC "-//W3C//DTD SVG 1.1//EN" "http://www.w3.org/Graphics/SVG/1.1/DTD/svg11.dtd">
<svg width="100%" height="100%" viewBox="0 0 26 27" version="1.1" xmlns="http://www.w3.org/2000/svg" xmlns:xlink="http://www.w3.org/1999/xlink" xml:space="preserve" xmlns:serif="http://www.serif.com/" style="fill-rule:evenodd;clip-rule:evenodd;stroke-linejoin:round;stroke-miterlimit:2;">
    <g transform="matrix(0.32,0,0,0.32,-422.98,-355.373)">
        <g transform="matrix(1,0,0,1,-2.33832,-7.53683)">
            <g transform="matrix(1,0,0,1,0.120065,32.9636)">
                <g transform="matrix(1.03031,0,0,1.06341,-39.9073,-74.1055)">
                    <path d="M1398.97,1149.03L1326.32,1149.03L1326.32,1162.6C1326.32,1164.21 1326.98,1165.76 1328.15,1166.9C1329.33,1168.03 1330.92,1168.67 1332.59,1168.67C1346.26,1168.67 1378.65,1168.67 1392.51,1168.67C1396.08,1168.67 1398.97,1165.87 1398.97,1162.41C1398.97,1156.66 1398.97,1149.03 1398.97,1149.03Z" style="fill:rgb(120,144,156);"/>
                </g>
                <g transform="matrix(1,0,0,1,0.11724,-16.5023)">
                    <ellipse cx="1387.13" cy="1178.58" rx="4.334" ry="4.543" style="fill:rgb(100,221,23);"/>
                </g>
                <g transform="matrix(0.660366,0,0,0.470842,518.822,567.059)">
                    <path d="M1336.35,1230.46C1337.27,1235.09 1336.59,1240.06 1334.51,1243.88C1332.43,1247.7 1329.2,1249.94 1325.77,1249.93C1302.75,1249.84 1257.95,1249.66 1234.56,1249.57C1231,1249.56 1227.66,1247.2 1225.53,1243.21C1223.4,1239.21 1222.73,1234.05 1223.73,1229.26C1227.01,1213.49 1231.41,1192.31 1233.93,1180.18C1235.12,1174.48 1238.83,1170.56 1243.06,1170.55C1258.52,1170.5 1295.2,1170.38 1313.55,1170.32C1319.96,1170.3 1325.6,1176.28 1327.32,1184.95C1329.86,1197.74 1333.56,1216.4 1336.35,1230.46Z" style="fill:rgb(69,90,100);"/>
                </g>
            </g>
            <g transform="matrix(1,0,0,1,0.122184,16.4528)">
                <g transform="matrix(1.03031,0,0,1.06341,-39.9073,-74.1055)">
                    <path d="M1398.97,1149.03L1326.32,1149.03L1326.32,1162.6C1326.32,1164.21 1326.98,1165.76 1328.15,1166.9C1329.33,1168.03 1330.92,1168.67 1332.59,1168.67C1346.26,1168.67 1378.65,1168.67 1392.51,1168.67C1396.08,1168.67 1398.97,1165.87 1398.97,1162.41C1398.97,1156.66 1398.97,1149.03 1398.97,1149.03Z" style="fill:rgb(120,144,156);"/>
                </g>
                <g transform="matrix(1,0,0,1,0.11724,-16.5023)">
                    <ellipse cx="1387.13" cy="1178.58" rx="4.334" ry="4.543" style="fill:rgb(100,221,23);"/>
                </g>
                <g transform="matrix(0.660366,0,0,0.470842,518.822,567.059)">
                    <path d="M1336.35,1230.46C1337.27,1235.09 1336.59,1240.06 1334.51,1243.88C1332.43,1247.7 1329.2,1249.94 1325.77,1249.93C1302.75,1249.84 1257.95,1249.66 1234.56,1249.57C1231,1249.56 1227.66,1247.2 1225.53,1243.21C1223.4,1239.21 1222.73,1234.05 1223.73,1229.26C1227.01,1213.49 1231.41,1192.31 1233.93,1180.18C1235.12,1174.48 1238.83,1170.56 1243.06,1170.55C1258.52,1170.5 1295.2,1170.38 1313.55,1170.32C1319.96,1170.3 1325.6,1176.28 1327.32,1184.95C1329.86,1197.74 1333.56,1216.4 1336.35,1230.46Z" style="fill:rgb(69,90,100);"/>
                </g>
            </g>
            <g>
                <g transform="matrix(1.03031,0,0,1.06341,-39.9073,-74.1055)">
                    <path d="M1398.97,1149.03L1326.32,1149.03L1326.32,1162.6C1326.32,1164.21 1326.98,1165.76 1328.15,1166.9C1329.33,1168.03 1330.92,1168.67 1332.59,1168.67C1346.26,1168.67 1378.65,1168.67 1392.51,1168.67C1396.08,1168.67 1398.97,1165.87 1398.97,1162.41C1398.97,1156.66 1398.97,1149.03 1398.97,1149.03Z" style="fill:rgb(120,144,156);"/>
                </g>
                <g transform="matrix(1,0,0,1,0.11724,-16.5023)">
                    <ellipse cx="1387.13" cy="1178.58" rx="4.334" ry="4.543" style="fill:rgb(100,221,23);"/>
                </g>
                <g transform="matrix(0.660366,0,0,0.470842,518.822,567.059)">
                    <path d="M1336.35,1230.46C1337.27,1235.09 1336.59,1240.06 1334.51,1243.88C1332.43,1247.7 1329.2,1249.94 1325.77,1249.93C1302.75,1249.84 1257.95,1249.66 1234.56,1249.57C1231,1249.56 1227.66,1247.2 1225.53,1243.21C1223.4,1239.21 1222.73,1234.05 1223.73,1229.26C1227.01,1213.49 1231.41,1192.31 1233.93,1180.18C1235.12,1174.48 1238.83,1170.56 1243.06,1170.55C1258.52,1170.5 1295.2,1170.38 1313.55,1170.32C1319.96,1170.3 1325.6,1176.28 1327.32,1184.95C1329.86,1197.74 1333.56,1216.4 1336.35,1230.46Z" style="fill:rgb(69,90,100);"/>
                </g>
            </g>
        </g>
    </g>
</svg>
